<?xml version="1.0" encoding="UTF-8"?><svg id="OTD-Horizontal-Positive-2" xmlns="http://www.w3.org/2000/svg" viewBox="0 0 1280 342.01"><defs><style>.cls-1{fill:#6faddd;}.cls-1,.cls-2{stroke-width:0px;}.cls-2{fill:#191918;}</style></defs><g id="OTD-Horizontal-Positive-3"><g id="Circle"><path class="cls-2" d="m50.06,50.07c-8.8,8.8-16.49,18.38-22.96,28.4C-15.53,144.75-7.85,234,50.06,291.92c58,58,147.16,65.6,213.37,22.96-13.12,0-26.24-5.01-36.25-15.02-13.21-13.21-17.69-31.85-13.47-48.77-34.35,18.38-78.03,13.03-106.94-15.88-28.92-28.91-34.27-72.59-15.88-106.94,4.06-7.68,9.32-14.85,15.8-21.32l.09-.09.09-.09c15.54-15.71,15.54-41-.09-56.62-15.62-15.71-41.09-15.71-56.71,0"/><path class="cls-1" d="m78.54,27.1c13.12,0,26.24,5.01,36.25,15.02,13.21,13.21,17.69,31.85,13.46,48.77,34.35-18.38,78.03-13.03,106.94,15.88,28.91,28.91,34.27,72.59,15.88,106.94-4.06,7.68-9.32,14.85-15.8,21.32l-.09.09-.09.09c-15.54,15.71-15.54,41,.09,56.62,15.62,15.62,41.08,15.62,56.71,0,8.8-8.8,16.49-18.38,22.96-28.4,42.64-66.2,35.04-155.45-22.96-213.37C233.9-7.85,144.74-15.53,78.54,27.1Z"/></g><path id="Text" class="cls-2" d="m503.49,146.41c-12.69,0-24.4-2.94-35.12-8.83-10.6-6.02-19.03-14.32-25.31-24.92-6.15-10.73-9.22-22.76-9.22-36.11s3.08-25.31,9.22-35.91c6.28-10.6,14.72-18.84,25.31-24.72,10.73-6.02,22.43-9.03,35.12-9.03s24.53,3.01,35.12,9.03c10.73,5.89,19.17,14.13,25.31,24.72,6.15,10.6,9.22,22.57,9.22,35.91s-3.08,25.38-9.22,36.11c-6.15,10.6-14.58,18.9-25.31,24.92-10.6,5.89-22.31,8.83-35.12,8.83Zm0-19.43c9.03,0,17.07-2.03,24.14-6.08,7.06-4.19,12.56-10.07,16.48-17.66,4.06-7.72,6.08-16.61,6.08-26.69s-2.03-18.9-6.08-26.49c-3.92-7.59-9.42-13.41-16.48-17.46-7.06-4.06-15.11-6.08-24.14-6.08s-17.07,2.03-24.14,6.08-12.62,9.88-16.68,17.46c-3.92,7.59-5.89,16.42-5.89,26.49s1.96,18.97,5.89,26.69c4.06,7.59,9.61,13.47,16.68,17.66,7.06,4.06,15.11,6.08,24.14,6.08Zm146.22-91.83c8.51,0,16.09,1.77,22.76,5.3,6.8,3.53,12.1,8.76,15.89,15.7,3.8,6.93,5.69,15.31,5.69,25.12v63.77h-22.17v-60.44c0-9.68-2.42-17.07-7.26-22.17-4.84-5.23-11.44-7.85-19.82-7.85s-15.04,2.62-20.01,7.85c-4.84,5.1-7.26,12.49-7.26,22.17v60.44h-22.37V36.92h22.37v12.36c3.66-4.45,8.31-7.91,13.93-10.4,5.76-2.49,11.84-3.73,18.25-3.73Zm171.97,53.18c0,4.06-.26,7.72-.78,10.99h-82.61c.66,8.63,3.86,15.57,9.61,20.8,5.76,5.23,12.82,7.85,21.19,7.85,12.04,0,20.54-5.04,25.51-15.11h24.14c-3.27,9.94-9.22,18.12-17.86,24.53-8.5,6.28-19.1,9.42-31.79,9.42-10.33,0-19.62-2.29-27.86-6.87-8.11-4.71-14.52-11.25-19.23-19.62-4.58-8.5-6.87-18.31-6.87-29.43s2.23-20.86,6.67-29.24c4.58-8.5,10.92-15.04,19.03-19.62,8.24-4.58,17.66-6.87,28.26-6.87s19.3,2.22,27.27,6.67c7.98,4.45,14.2,10.73,18.64,18.84,4.45,7.98,6.67,17.2,6.67,27.67Zm-23.35-7.06c-.13-8.24-3.07-14.85-8.83-19.82-5.75-4.97-12.88-7.46-21.39-7.46-7.72,0-14.32,2.49-19.82,7.46-5.49,4.84-8.76,11.45-9.81,19.82h59.85ZM931.8,8.66v18.25h-36.3v118.13h-22.37V26.91h-36.5V8.66h95.17Zm167.86,28.26l-33.55,108.12h-23.55l-21.78-79.86-21.78,79.86h-23.55l-33.75-108.12h22.76l22.57,86.93,22.96-86.93h23.35l21.98,86.53,22.37-86.53h21.98Zm63.61,109.88c-10.2,0-19.43-2.29-27.67-6.87-8.24-4.71-14.72-11.25-19.43-19.62-4.71-8.5-7.06-18.31-7.06-29.43s2.42-20.73,7.26-29.24c4.84-8.5,11.44-15.04,19.82-19.62,8.37-4.58,17.72-6.87,28.06-6.87s19.69,2.29,28.06,6.87c8.37,4.58,14.98,11.12,19.82,19.62,4.84,8.5,7.26,18.25,7.26,29.24s-2.49,20.73-7.46,29.24c-4.97,8.5-11.77,15.11-20.41,19.82-8.51,4.58-17.92,6.87-28.26,6.87Zm0-19.43c5.75,0,11.12-1.37,16.09-4.12,5.1-2.75,9.22-6.87,12.36-12.36s4.71-12.17,4.71-20.01-1.51-14.46-4.51-19.82c-3.01-5.49-7-9.61-11.97-12.36-4.97-2.75-10.34-4.12-16.09-4.12s-11.12,1.37-16.09,4.12c-4.84,2.75-8.7,6.87-11.58,12.36-2.88,5.36-4.32,11.97-4.32,19.82,0,11.64,2.94,20.67,8.83,27.08,6.01,6.28,13.54,9.42,22.57,9.42Zm-677.45,68.98c14.52,0,27.21,2.81,38.07,8.44,10.99,5.49,19.43,13.47,25.31,23.94,6.02,10.33,9.03,22.43,9.03,36.3s-3.01,25.9-9.03,36.11c-5.89,10.2-14.32,18.05-25.31,23.55-10.86,5.36-23.55,8.05-38.07,8.05h-44.54v-136.37h44.54Zm0,118.13c15.96,0,28.19-4.32,36.69-12.95,8.5-8.63,12.75-20.8,12.75-36.5s-4.25-28.19-12.75-37.09c-8.5-8.9-20.74-13.34-36.69-13.34h-22.17v99.88h22.17Zm105.96-104.19c-4.05,0-7.46-1.37-10.2-4.12-2.75-2.75-4.12-6.15-4.12-10.2s1.37-7.46,4.12-10.2c2.75-2.75,6.15-4.12,10.2-4.12s7.26,1.37,10.01,4.12c2.75,2.75,4.12,6.15,4.12,10.2s-1.37,7.46-4.12,10.2c-2.75,2.75-6.08,4.12-10.01,4.12Zm10.99,14.32v108.12h-22.37v-108.12h22.37Zm96.09,92.42c-3.27,4.97-8.37,9.16-15.31,12.56-6.8,3.4-14.19,5.1-22.17,5.1-6.93,0-13.21-1.37-18.84-4.12-5.62-2.88-10.01-6.74-13.15-11.58-3.14-4.97-4.71-10.53-4.71-16.68,0-9.94,3.6-18.18,10.79-24.72,7.33-6.54,18.25-9.81,32.77-9.81h30.61c-.26-7.72-2.61-13.93-7.06-18.64-4.32-4.71-10.14-7.06-17.46-7.06-6.67,0-12.23,1.83-16.68,5.49-4.32,3.66-7.06,8.76-8.24,15.31h-21.98c1.57-11.9,6.61-21.58,15.11-29.04,8.63-7.46,19.56-11.18,32.77-11.18,8.63,0,16.42,1.9,23.35,5.69,7.06,3.66,12.63,9.03,16.68,16.09,4.19,7.06,6.28,15.37,6.28,24.92v63.38h-22.76v-15.7Zm-32.77-1.96c5.1,0,10.14-1.05,15.11-3.14,5.1-2.22,9.29-5.49,12.56-9.81,3.4-4.45,5.1-9.81,5.1-16.09v-.2h-30.61c-7.06,0-12.29,1.37-15.7,4.12-3.27,2.75-4.91,6.28-4.91,10.6s1.64,7.98,4.91,10.6c3.27,2.62,7.78,3.92,13.54,3.92Zm107.42-74.37c3.79-5.23,8.96-9.48,15.5-12.75,6.67-3.4,14.06-5.1,22.17-5.1,9.55,0,18.18,2.29,25.9,6.87,7.72,4.58,13.8,11.12,18.25,19.62,4.44,8.37,6.67,17.99,6.67,28.84s-2.23,20.6-6.67,29.24c-4.45,8.5-10.6,15.17-18.44,20.01-7.72,4.71-16.29,7.06-25.71,7.06-8.37,0-15.83-1.64-22.37-4.91-6.41-3.27-11.51-7.46-15.31-12.56v15.7h-22.37v-145.2h22.37v53.18Zm65.73,37.48c0-7.46-1.57-13.87-4.71-19.23-3.01-5.49-7.06-9.61-12.17-12.36-4.97-2.88-10.34-4.32-16.09-4.32s-10.99,1.44-16.09,4.32c-4.97,2.88-9.03,7.06-12.17,12.56-3.01,5.49-4.51,11.97-4.51,19.43s1.5,14,4.51,19.62c3.14,5.49,7.19,9.68,12.17,12.56,5.1,2.88,10.46,4.32,16.09,4.32s11.12-1.44,16.09-4.32c5.1-3.01,9.15-7.33,12.17-12.95,3.14-5.63,4.71-12.17,4.71-19.62Zm143.97-2.16c0,4.06-.26,7.72-.78,10.99h-82.61c.66,8.63,3.86,15.57,9.61,20.8,5.76,5.23,12.82,7.85,21.19,7.85,12.04,0,20.54-5.04,25.51-15.11h24.14c-3.27,9.94-9.22,18.12-17.86,24.53-8.5,6.28-19.1,9.42-31.79,9.42-10.33,0-19.62-2.29-27.86-6.87-8.11-4.71-14.52-11.25-19.23-19.62-4.58-8.5-6.87-18.31-6.87-29.43s2.23-20.86,6.67-29.24c4.58-8.5,10.92-15.04,19.03-19.62,8.24-4.58,17.66-6.87,28.26-6.87s19.3,2.22,27.27,6.67c7.98,4.45,14.2,10.73,18.64,18.84,4.45,7.98,6.67,17.2,6.67,27.67Zm-23.35-7.06c-.13-8.24-3.07-14.85-8.83-19.82-5.75-4.97-12.88-7.46-21.39-7.46-7.72,0-14.32,2.49-19.82,7.46-5.49,4.84-8.76,11.45-9.81,19.82h59.85Zm71.46-26.1v59.85c0,4.06.92,7,2.75,8.83,1.96,1.7,5.23,2.55,9.81,2.55h13.74v18.64h-17.66c-10.07,0-17.79-2.35-23.15-7.06-5.36-4.71-8.05-12.36-8.05-22.96v-59.85h-12.75v-18.25h12.75v-26.88h22.57v26.88h26.29v18.25h-26.29Zm146,33.16c0,4.06-.26,7.72-.78,10.99h-82.61c.66,8.63,3.86,15.57,9.61,20.8,5.76,5.23,12.82,7.85,21.19,7.85,12.04,0,20.54-5.04,25.51-15.11h24.14c-3.27,9.94-9.22,18.12-17.86,24.53-8.5,6.28-19.1,9.42-31.79,9.42-10.33,0-19.62-2.29-27.86-6.87-8.11-4.71-14.52-11.25-19.23-19.62-4.58-8.5-6.87-18.31-6.87-29.43s2.23-20.86,6.67-29.24c4.58-8.5,10.92-15.04,19.03-19.62,8.24-4.58,17.66-6.87,28.26-6.87s19.3,2.22,27.28,6.67c7.98,4.45,14.2,10.73,18.64,18.84,4.45,7.98,6.67,17.2,6.67,27.67Zm-23.35-7.06c-.13-8.24-3.07-14.85-8.83-19.82-5.75-4.97-12.88-7.46-21.39-7.46-7.72,0-14.32,2.49-19.82,7.46-5.49,4.84-8.76,11.45-9.81,19.82h59.85Zm84.61,65.54c-8.5,0-16.15-1.5-22.96-4.51-6.67-3.14-11.97-7.33-15.89-12.56-3.92-5.36-6.02-11.32-6.28-17.86h23.15c.39,4.58,2.55,8.44,6.48,11.58,4.06,3.01,9.09,4.51,15.11,4.51s11.12-1.18,14.52-3.53c3.53-2.49,5.3-5.63,5.3-9.42,0-4.06-1.96-7.06-5.89-9.03-3.79-1.96-9.88-4.12-18.25-6.48-8.11-2.22-14.72-4.38-19.82-6.48-5.1-2.09-9.55-5.3-13.34-9.61-3.66-4.32-5.49-10.01-5.49-17.07,0-5.76,1.7-10.99,5.1-15.7,3.4-4.84,8.24-8.63,14.52-11.38,6.41-2.75,13.74-4.12,21.98-4.12,12.3,0,22.17,3.14,29.63,9.42,7.59,6.15,11.64,14.59,12.17,25.31h-22.37c-.39-4.84-2.35-8.7-5.89-11.58-3.53-2.88-8.31-4.32-14.32-4.32s-10.4,1.11-13.54,3.34c-3.14,2.22-4.71,5.17-4.71,8.83,0,2.88,1.05,5.3,3.14,7.26s4.65,3.53,7.65,4.71c3.01,1.05,7.46,2.42,13.34,4.12,7.85,2.09,14.26,4.25,19.23,6.48,5.1,2.09,9.48,5.23,13.15,9.42s5.56,9.75,5.69,16.68c0,6.15-1.7,11.64-5.1,16.48-3.4,4.84-8.24,8.63-14.52,11.38-6.15,2.75-13.41,4.12-21.78,4.12Z"/></g></svg>