<svg width="20" height="20" viewBox="0 0 20 20" fill="none" xmlns="http://www.w3.org/2000/svg">
<path d="M8.03356 0.000159447C6.8575 0.000159447 5.89098 0.965435 5.89098 2.14044V2.85207H0.717795C0.320662 2.85047 -0.00158775 3.17256 5.88543e-06 3.56908C0.00160205 3.96356 0.322913 4.28214 0.717795 4.28071H1.99859L2.85049 16.8944C2.96477 18.5655 4.26952 20 6.00694 20H13.9931C15.7306 20 17.0353 18.5653 17.1496 16.8944L18.0043 4.28071H19.2822C19.6771 4.28231 19.9986 3.96373 20 3.56908C20.0016 3.17238 19.6792 2.85047 19.2822 2.85207L14.1094 2.85191V2.14028C14.1094 0.96548 13.1431 0 11.9669 0L8.03356 0.000159447ZM8.03356 1.42881H11.9666C12.375 1.42881 12.679 1.73224 12.679 2.14044V2.85207H7.31577L7.31561 2.14027C7.31561 1.73225 7.62495 1.42864 8.0334 1.42864L8.03356 1.42881ZM3.42305 4.28051H16.5714L15.7249 16.7938C15.6548 17.8186 14.9606 18.5712 13.993 18.5712H6.00727C5.03965 18.5712 4.34548 17.8185 4.2754 16.7938L3.42305 4.28051Z" fill="#00615D"/>
<path d="M7.99714 7.27272C7.80416 7.27334 7.61946 7.34753 7.48362 7.47865C7.34761 7.60993 7.27181 7.7874 7.27247 7.97231V14.9369C7.27182 15.1217 7.34761 15.2993 7.48362 15.4306C7.61947 15.5617 7.80417 15.6357 7.99714 15.6363C8.19093 15.6371 8.37709 15.5637 8.51406 15.4323C8.6512 15.301 8.72781 15.1226 8.727 14.9369V7.97231C8.72781 7.7866 8.6512 7.6082 8.51406 7.47678C8.37707 7.3455 8.19091 7.27193 7.99714 7.27271V7.27272Z" fill="#00615D"/>
<path d="M12.3676 7.27271C12.1738 7.27193 11.9876 7.3455 11.8506 7.47678C11.7135 7.60821 11.6369 7.78661 11.6377 7.97231V14.9369C11.6369 15.1226 11.7135 15.301 11.8506 15.4323C11.9876 15.5637 12.1738 15.6371 12.3676 15.6363C12.5605 15.6357 12.7452 15.5617 12.8812 15.4306C13.0171 15.2993 13.093 15.1217 13.0922 14.9369V7.97231C13.093 7.78738 13.0171 7.60991 12.8812 7.47865C12.7452 7.34753 12.5605 7.27334 12.3676 7.27271V7.27271Z" fill="#00615D"/>
</svg>